<?xml version="1.0" encoding="utf-8"?>
<!-- Generator: Adobe Illustrator 24.1.1, SVG Export Plug-In . SVG Version: 6.00 Build 0)  -->
<svg version="1.1" id="Calque_1" xmlns="http://www.w3.org/2000/svg" xmlns:xlink="http://www.w3.org/1999/xlink" x="0px" y="0px"
	 viewBox="0 0 441 435" style="enable-background:new 0 0 441 435;" xml:space="preserve">
<style type="text/css">
	.st0{opacity:0.1;}
	.st1{fill:#4D4D4D;}
</style>
<g id="monogramme_5_" class="st0">
	<g>
		<path class="st1" d="M-60.1,273.7c0,149,121.1,270.1,270.1,270.1c70.9,0,126.8-26.7,166-57.3l-57-63.6
			c-31.3,22.6-67.9,35.3-109.1,35.3c-101.7,0-184.4-82.7-184.4-184.4c0-101.6,82.7-184.4,184.4-184.4c26.3,0,51.3,5.6,74,15.6
			l33.9-78.6C284.8,11.7,248.3,3.6,210,3.6C61,3.6-60.1,124.8-60.1,273.7z"/>
		<path class="st1" d="M66,273.7c0,79.4,64.5,143.9,143.9,143.9c30.4,0,61.2-10.8,80.9-25.7c0,0-53.5-59.7-58.2-64.7
			c-4.8,2.3-14.5,4.8-22.7,4.8c-32.1,0-58.3-26.1-58.3-58.3c0-32.1,26.3-59.1,58.5-59.1c8.3,0,16.5,2,23.7,5.1l33.8-77.5
			c-17.2-7.3-36.2-12.3-57.7-12.3C130.6,129.8,66,194.3,66,273.7z"/>
		<g>
			<path class="st1" d="M317.3,217.7c7.4,14.7,13.8,34.6,13.8,55.9c0,27-11.4,56.2-26.5,75.6l57.8,63.7
				c32.2-34.5,54.4-84.4,54.4-139.3c0-32.5-8.1-65.2-21.8-92.2L317.3,217.7z"/>
		</g>
	</g>
	<g>
		<path class="st1" d="M293.3,185.8l146.6-68.7c-21.7-31.8-51.2-60.9-81.4-79.2l-65.7,147.5L293.3,185.8z"/>
	</g>
</g>
</svg>
